<svg width="419" height="464" viewBox="0 0 419 464" fill="none" xmlns="http://www.w3.org/2000/svg">
<g clip-path="url(#clip0_3_63)">
<path d="M89.001 360.475V257L178.001 309L89.001 360.475Z" fill="#01C3C7"/>
<path d="M89 257L178 206V309L89 257ZM119 368.5L148.965 351L149.001 351.022V386L119 368.5Z" fill="#0C78A3"/>
<path d="M89.001 257V154L178.001 206L89.001 257Z" fill="#0C78A3"/>
<path d="M0 205.512L89 154V257L0 205.512Z" fill="#01BBBE"/>
<path d="M0 411.738V411.581L89.064 360.174L89.131 360.217V463.19L0 411.738Z" fill="#01C3C7"/>
<path d="M0.00601196 205.813V103L89 154L0.00601196 205.813Z" fill="#EF3239"/>
<path d="M0 103L89 52V154L0 103ZM89 154V52L178 103L89 154Z" fill="#EF3239"/>
<path d="M267 154V51L356 103L267 154ZM383.001 124V82.018L383.037 82L419.001 102.995L383.001 124Z" fill="#F7972A"/>
<path d="M267 360V257L356 309L267 360Z" fill="#FBCB86"/>
<path d="M177.622 205.878L267.001 154V257L177.622 205.878Z" fill="#F46B34"/>
<path d="M178.001 309V206L267.001 257L178.001 309Z" fill="#F46B34"/>
<path d="M178.001 309L267.001 257V360L178.001 309ZM178.001 103V206L267.001 154L178.001 103Z" fill="#F7972A"/>
<path d="M178 103L267 51V154L178 103Z" fill="#F7972A"/>
<path d="M178 103V0L267.261 51.386L178 103Z" fill="#F97211"/>
<path d="M89 52L178 0V103L89 52Z" fill="#A5161C"/>
<path d="M89 154L178 103V206L89 154Z" fill="#F7972A"/>
</g>
<defs>
<clipPath id="clip0_3_63">
<rect width="419" height="464" fill="white"/>
</clipPath>
</defs>
</svg>
