<svg width="447" height="675" viewBox="0 0 447 675" fill="none" xmlns="http://www.w3.org/2000/svg">
<g clip-path="url(#clip0_3_34)">
<path d="M357 160.118V263.194L268 212.157L357 160.118Z" fill="#02D4D8"/>
<path d="M357 263.194L268 314.232V212.157L357 263.194ZM357.007 263.194L357 366.27L268 314.232L357.007 263.194Z" fill="#0C78A3"/>
<path d="M447 314.232L357 366.27V263.194L447 314.232Z" fill="#01BBBE"/>
<path d="M447 212.157V314.232L357 263.194L447 212.157Z" fill="#01BBBE"/>
<path d="M414.301 0V29.858L414.283 29.871L388.441 14.939L414.301 0ZM447 108.58L357 160.118V57.0421L447 108.58Z" fill="#02D4D8"/>
<path d="M357.001 469.371V572.422L268 520.409L357.001 469.371Z" fill="#A5161C"/>
<path d="M357 572.422L268 623.46V520.384L357 572.422Z" fill="#EF3239"/>
<path d="M357 572.422V675.498L268 623.46L357 572.422ZM447 623.46L357 675.498V572.422L447 623.46Z" fill="#01C3C7"/>
<path d="M447 623.46V520.384L357 572.422L447 623.46Z" fill="#0C78A3"/>
<path d="M447 520.384L357 572.422V469.346L447 520.384Z" fill="#0C78A3"/>
<path d="M447 314.232V417.308L357 366.27L447 314.232Z" fill="#EF4D29"/>
<path d="M447 417.308L357 469.346V366.27L447 417.308Z" fill="#EF4D29"/>
<path d="M447 417.308V520.384L357 469.346L447 417.308Z" fill="#01C3C7"/>
<path d="M357 366.27V469.346L268 417.308L357 366.27Z" fill="#EF4D29"/>
<path d="M178 160.118V263.194L90 212.157L178 160.118Z" fill="#FBCB86"/>
<path d="M268 314.232L178 366.27V263.194L268 314.232ZM117.791 314.549L76.208 338.576V290.548L76.244 290.532L117.791 314.549Z" fill="#F97211"/>
<path d="M117 168.124L89 184.136V152.112L117 168.124Z" fill="#FBCB86"/>
<path d="M267.999 212.157L268 314.232L178 263.194L267.999 212.157Z" fill="#F97211"/>
<path d="M268 212.157L178 263.194V160.118L268 212.157Z" fill="#F7972A"/>
<path d="M178 469.346V572.422L90 520.384L178 469.346Z" fill="#F36246"/>
<path d="M268 623.46L178 675.498V572.422L268 623.46ZM89.399 623.492L0 675.498V572.422L89.399 623.492Z" fill="#EF3239"/>
<path d="M268 623.46V520.384L178 572.422L268 623.46Z" fill="#EF3239"/>
<path d="M268 520.384L178 572.422V469.346L268 520.384Z" fill="#EF3239"/>
<path d="M268 314.232V417.308L178 366.27L268 314.232Z" fill="#F7972A"/>
<path d="M268 417.308L178 469.346V366.27L268 417.308Z" fill="#F7972A"/>
<path d="M268 417.308V520.384L178 469.346L268 417.308Z" fill="#F97211"/>
<path d="M357 469.416L268 520.384V417.308L357 469.416Z" fill="#A5161C"/>
<path d="M357.282 365.984L268 417.308V314.232L357.282 365.984Z" fill="#F7972A"/>
</g>
<defs>
<clipPath id="clip0_3_34">
<rect width="447" height="675.498" fill="white"/>
</clipPath>
</defs>
</svg>
