<svg width="18" height="19" viewBox="0 0 18 19" fill="none" xmlns="http://www.w3.org/2000/svg">
<path d="M9 11C10.6545 11 12 9.6545 12 8C12 6.3455 10.6545 5 9 5C7.3455 5 6 6.3455 6 8C6 9.6545 7.3455 11 9 11ZM9 6.5C9.82725 6.5 10.5 7.17275 10.5 8C10.5 8.82725 9.82725 9.5 9 9.5C8.17275 9.5 7.5 8.82725 7.5 8C7.5 7.17275 8.17275 6.5 9 6.5Z" fill="#44566C"/>
<path d="M8.565 16.8605C8.69194 16.9511 8.84402 16.9999 9 16.9999C9.15598 16.9999 9.30807 16.9511 9.435 16.8605C9.663 16.6992 15.0218 12.83 15 8C15 4.69175 12.3083 2 9 2C5.69175 2 3 4.69175 3 7.99625C2.97825 12.83 8.337 16.6992 8.565 16.8605ZM9 3.5C11.4818 3.5 13.5 5.51825 13.5 8.00375C13.5158 11.3323 10.209 14.321 9 15.3013C7.79175 14.3203 4.48425 11.3307 4.5 8C4.5 5.51825 6.51825 3.5 9 3.5Z" fill="#44566C"/>
</svg>
