<svg width="18" height="19" viewBox="0 0 18 19" fill="none" xmlns="http://www.w3.org/2000/svg">
<path d="M9 2C4.8645 2 1.5 5.3645 1.5 9.5C1.5 13.6355 4.8645 17 9 17C13.1355 17 16.5 13.6355 16.5 9.5C16.5 5.3645 13.1355 2 9 2ZM3 9.5C3 8.82575 3.117 8.1785 3.32325 7.57325L4.5 8.75L6 10.25V11.75L7.5 13.25L8.25 14V15.4482C5.29575 15.077 3 12.554 3 9.5ZM13.7475 13.1547C13.2577 12.7602 12.5153 12.5 12 12.5V11.75C12 11.3522 11.842 10.9706 11.5607 10.6893C11.2794 10.408 10.8978 10.25 10.5 10.25H7.5V8C7.89782 8 8.27936 7.84196 8.56066 7.56066C8.84196 7.27936 9 6.89782 9 6.5V5.75H9.75C10.1478 5.75 10.5294 5.59196 10.8107 5.31066C11.092 5.02936 11.25 4.64782 11.25 4.25V3.94175C13.446 4.8335 15 6.9875 15 9.5C14.9999 10.8235 14.5592 12.1094 13.7475 13.1547Z" fill="#44566C"/>
</svg>
