<svg xmlns="http://www.w3.org/2000/svg" width="187.64" height="35" viewBox="0 0 187.64 35"><rect class="svg__rect" x="0" y="0" width="85.53" height="35" fill="#31C4F3"/><rect class="svg__rect" x="83.53" y="0" width="104.11" height="35" fill="#389AD5"/><path class="svg__text" d="M13.95 18.19L13.95 18.19L13.95 17.39Q13.95 16.19 14.38 15.27Q14.80 14.35 15.60 13.85Q16.40 13.35 17.45 13.35L17.45 13.35Q18.86 13.35 19.73 14.12Q20.59 14.89 20.73 16.29L20.73 16.29L19.25 16.29Q19.14 15.37 18.71 14.96Q18.28 14.55 17.45 14.55L17.45 14.55Q16.48 14.55 15.97 15.26Q15.45 15.96 15.44 17.33L15.44 17.33L15.44 18.09Q15.44 19.47 15.93 20.20Q16.43 20.92 17.38 20.92L17.38 20.92Q18.25 20.92 18.69 20.53Q19.13 20.14 19.25 19.22L19.25 19.22L20.73 19.22Q20.60 20.59 19.72 21.35Q18.84 22.12 17.38 22.12L17.38 22.12Q16.36 22.12 15.59 21.63Q14.81 21.15 14.39 20.26Q13.97 19.37 13.95 18.19ZM24.77 18.00L24.77 18.00L24.77 17.52Q24.77 16.28 25.21 15.32Q25.65 14.37 26.46 13.86Q27.27 13.35 28.31 13.35Q29.35 13.35 30.16 13.85Q30.96 14.35 31.40 15.29Q31.84 16.23 31.85 17.48L31.85 17.48L31.85 17.96Q31.85 19.21 31.41 20.16Q30.98 21.10 30.18 21.61Q29.37 22.12 28.32 22.12L28.32 22.12Q27.28 22.12 26.47 21.61Q25.66 21.10 25.22 20.17Q24.78 19.23 24.77 18.00ZM26.25 17.46L26.25 17.96Q26.25 19.36 26.80 20.13Q27.35 20.90 28.32 20.90L28.32 20.90Q29.31 20.90 29.84 20.15Q30.37 19.40 30.37 17.96L30.37 17.96L30.37 17.51Q30.37 16.09 29.83 15.34Q29.29 14.58 28.31 14.58L28.31 14.58Q27.35 14.58 26.81 15.33Q26.26 16.09 26.25 17.46L26.25 17.46ZM38.77 22L36.31 22L36.31 13.47L38.83 13.47Q39.96 13.47 40.84 13.97Q41.72 14.48 42.20 15.40Q42.68 16.33 42.68 17.52L42.68 17.52L42.68 17.95Q42.68 19.16 42.19 20.08Q41.71 21.00 40.82 21.50Q39.92 22 38.77 22L38.77 22ZM37.80 14.66L37.80 20.82L38.76 20.82Q39.93 20.82 40.55 20.09Q41.18 19.36 41.19 17.99L41.19 17.99L41.19 17.52Q41.19 16.13 40.58 15.40Q39.98 14.66 38.83 14.66L38.83 14.66L37.80 14.66ZM48.71 22L47.23 22L47.23 13.47L48.71 13.47L48.71 22ZM53.27 18.13L53.27 18.13L53.27 17.46Q53.27 15.53 54.20 14.44Q55.12 13.35 56.78 13.35L56.78 13.35Q58.20 13.35 59.04 14.05Q59.88 14.76 60.05 16.08L60.05 16.08L58.60 16.08Q58.35 14.54 56.81 14.54L56.81 14.54Q55.81 14.54 55.29 15.26Q54.78 15.98 54.76 17.37L54.76 17.37L54.76 18.02Q54.76 19.40 55.34 20.17Q55.92 20.93 56.96 20.93L56.96 20.93Q58.10 20.93 58.58 20.42L58.58 20.42L58.58 18.75L56.82 18.75L56.82 17.62L60.06 17.62L60.06 20.89Q59.59 21.50 58.77 21.81Q57.95 22.12 56.91 22.12L56.91 22.12Q55.84 22.12 55.01 21.63Q54.18 21.14 53.74 20.24Q53.29 19.33 53.27 18.13ZM64.40 18.00L64.40 18.00L64.40 17.52Q64.40 16.28 64.85 15.32Q65.29 14.37 66.09 13.86Q66.90 13.35 67.94 13.35Q68.98 13.35 69.79 13.85Q70.60 14.35 71.04 15.29Q71.47 16.23 71.48 17.48L71.48 17.48L71.48 17.96Q71.48 19.21 71.05 20.16Q70.61 21.10 69.81 21.61Q69.00 22.12 67.95 22.12L67.95 22.12Q66.92 22.12 66.10 21.61Q65.29 21.10 64.85 20.17Q64.41 19.23 64.40 18.00ZM65.89 17.46L65.89 17.96Q65.89 19.36 66.43 20.13Q66.98 20.90 67.95 20.90L67.95 20.90Q68.94 20.90 69.47 20.15Q70.00 19.40 70.00 17.96L70.00 17.96L70.00 17.51Q70.00 16.09 69.46 15.34Q68.93 14.58 67.94 14.58L67.94 14.58Q66.98 14.58 66.44 15.33Q65.90 16.09 65.89 17.46L65.89 17.46Z" fill="#FFFFFF"/><path class="svg__text" d="M99.14 22L96.71 22L100.42 13.60L102.76 13.60L106.48 22L104.01 22L103.35 20.37L99.80 20.37L99.14 22ZM101.57 15.93L100.49 18.61L102.65 18.61L101.57 15.93ZM115.17 22L110.63 22L110.63 13.60L114.93 13.60Q116.54 13.60 117.38 14.19Q118.22 14.79 118.22 15.79L118.22 15.79Q118.22 16.39 117.92 16.87Q117.63 17.34 117.09 17.62L117.09 17.62Q117.81 17.87 118.22 18.41Q118.62 18.94 118.62 19.70L118.62 19.70Q118.62 20.80 117.74 21.40Q116.85 22 115.17 22L115.17 22ZM112.99 18.58L112.99 20.28L114.98 20.28Q116.23 20.28 116.23 19.43L116.23 19.43Q116.23 18.58 114.98 18.58L114.98 18.58L112.99 18.58ZM112.99 15.31L112.99 16.94L114.62 16.94Q115.82 16.94 115.82 16.12L115.82 16.12Q115.82 15.31 114.62 15.31L114.62 15.31L112.99 15.31ZM125.72 22L123.34 22L123.34 13.60L125.72 13.60L125.72 22ZM137.64 22L130.89 22L130.89 13.60L137.49 13.60L137.49 15.44L133.25 15.44L133.25 16.85L136.98 16.85L136.98 18.63L133.25 18.63L133.25 20.17L137.64 20.17L137.64 22ZM144.82 22L142.44 22L142.44 13.60L146.29 13.60Q147.43 13.60 148.27 13.98Q149.10 14.35 149.56 15.06Q150.02 15.76 150.02 16.71L150.02 16.71Q150.02 17.62 149.59 18.30Q149.16 18.98 148.37 19.36L148.37 19.36L150.18 22L147.64 22L146.12 19.77L144.82 19.77L144.82 22ZM144.82 15.47L144.82 17.93L146.14 17.93Q146.87 17.93 147.24 17.61Q147.62 17.29 147.62 16.71L147.62 16.71Q147.62 16.12 147.24 15.79Q146.87 15.47 146.14 15.47L146.14 15.47L144.82 15.47ZM156.60 15.48L154.01 15.48L154.01 13.60L161.54 13.60L161.54 15.48L158.97 15.48L158.97 22L156.60 22L156.60 15.48ZM165.48 17.80L165.48 17.80Q165.48 16.55 166.09 15.55Q166.69 14.56 167.75 14.00Q168.82 13.43 170.15 13.43L170.15 13.43Q171.48 13.43 172.54 14.00Q173.60 14.56 174.21 15.55Q174.82 16.55 174.82 17.80L174.82 17.80Q174.82 19.05 174.21 20.04Q173.60 21.04 172.54 21.60Q171.48 22.17 170.15 22.17L170.15 22.17Q168.82 22.17 167.75 21.60Q166.69 21.04 166.09 20.04Q165.48 19.05 165.48 17.80ZM167.88 17.80L167.88 17.80Q167.88 18.51 168.18 19.05Q168.48 19.60 169.00 19.90Q169.51 20.20 170.15 20.20L170.15 20.20Q170.78 20.20 171.30 19.90Q171.82 19.60 172.11 19.05Q172.41 18.51 172.41 17.80L172.41 17.80Q172.41 17.09 172.11 16.54Q171.82 16 171.30 15.70Q170.78 15.40 170.15 15.40L170.15 15.40Q169.51 15.40 168.99 15.70Q168.48 16 168.18 16.54Q167.88 17.09 167.88 17.80Z" fill="#FFFFFF" x="96.53"/></svg>