<svg xmlns="http://www.w3.org/2000/svg" width="300.41" height="35" viewBox="0 0 300.41 35"><rect class="svg__rect" x="0" y="0" width="166.27" height="35" fill="#31C4F3"/><rect class="svg__rect" x="164.27" y="0" width="136.14000000000001" height="35" fill="#389AD5"/><path class="svg__text" d="M13.95 18.19L13.95 18.19L13.95 17.39Q13.95 16.19 14.38 15.27Q14.80 14.35 15.60 13.85Q16.40 13.35 17.45 13.35L17.45 13.35Q18.86 13.35 19.73 14.12Q20.59 14.89 20.73 16.29L20.73 16.29L19.25 16.29Q19.14 15.37 18.71 14.96Q18.28 14.55 17.45 14.55L17.45 14.55Q16.48 14.55 15.97 15.26Q15.45 15.96 15.44 17.33L15.44 17.33L15.44 18.09Q15.44 19.47 15.93 20.20Q16.43 20.92 17.38 20.92L17.38 20.92Q18.25 20.92 18.69 20.53Q19.13 20.14 19.25 19.22L19.25 19.22L20.73 19.22Q20.60 20.59 19.72 21.35Q18.84 22.12 17.38 22.12L17.38 22.12Q16.36 22.12 15.59 21.63Q14.81 21.15 14.39 20.26Q13.97 19.37 13.95 18.19ZM24.77 18.00L24.77 18.00L24.77 17.52Q24.77 16.28 25.21 15.32Q25.65 14.37 26.46 13.86Q27.27 13.35 28.31 13.35Q29.35 13.35 30.16 13.85Q30.96 14.35 31.40 15.29Q31.84 16.23 31.85 17.48L31.85 17.48L31.85 17.96Q31.85 19.21 31.41 20.16Q30.98 21.10 30.18 21.61Q29.37 22.12 28.32 22.12L28.32 22.12Q27.28 22.12 26.47 21.61Q25.66 21.10 25.22 20.17Q24.78 19.23 24.77 18.00ZM26.25 17.46L26.25 17.96Q26.25 19.36 26.80 20.13Q27.35 20.90 28.32 20.90L28.32 20.90Q29.31 20.90 29.84 20.15Q30.37 19.40 30.37 17.96L30.37 17.96L30.37 17.51Q30.37 16.09 29.83 15.34Q29.29 14.58 28.31 14.58L28.31 14.58Q27.35 14.58 26.81 15.33Q26.26 16.09 26.25 17.46L26.25 17.46ZM37.80 22L36.31 22L36.31 13.47L37.80 13.47L41.61 19.54L41.61 13.47L43.08 13.47L43.08 22L41.60 22L37.80 15.95L37.80 22ZM47.39 19.42L47.39 19.42L48.87 19.42Q48.87 20.15 49.35 20.55Q49.83 20.95 50.73 20.95L50.73 20.95Q51.50 20.95 51.89 20.63Q52.28 20.32 52.28 19.80L52.28 19.80Q52.28 19.24 51.88 18.94Q51.49 18.63 50.46 18.32Q49.43 18.01 48.82 17.63L48.82 17.63Q47.65 16.90 47.65 15.72L47.65 15.72Q47.65 14.69 48.49 14.02Q49.33 13.35 50.67 13.35L50.67 13.35Q51.56 13.35 52.26 13.68Q52.96 14.01 53.36 14.61Q53.76 15.22 53.76 15.96L53.76 15.96L52.28 15.96Q52.28 15.29 51.86 14.91Q51.44 14.54 50.66 14.54L50.66 14.54Q49.94 14.54 49.53 14.85Q49.13 15.16 49.13 15.71L49.13 15.71Q49.13 16.18 49.57 16.50Q50.00 16.81 51.00 17.10Q51.99 17.40 52.60 17.78Q53.20 18.16 53.48 18.65Q53.76 19.13 53.76 19.79L53.76 19.79Q53.76 20.86 52.94 21.49Q52.13 22.12 50.73 22.12L50.73 22.12Q49.80 22.12 49.02 21.77Q48.25 21.43 47.82 20.83Q47.39 20.22 47.39 19.42ZM59.73 14.66L57.10 14.66L57.10 13.47L63.86 13.47L63.86 14.66L61.20 14.66L61.20 22L59.73 22L59.73 14.66ZM69.10 22L67.62 22L67.62 13.47L70.62 13.47Q72.10 13.47 72.90 14.13Q73.70 14.79 73.70 16.05L73.70 16.05Q73.70 16.90 73.29 17.48Q72.88 18.06 72.14 18.37L72.14 18.37L74.05 21.92L74.05 22L72.47 22L70.75 18.71L69.10 18.71L69.10 22ZM69.10 14.66L69.10 17.52L70.63 17.52Q71.38 17.52 71.80 17.15Q72.22 16.77 72.22 16.11L72.22 16.11Q72.22 15.43 71.83 15.05Q71.44 14.68 70.67 14.66L70.67 14.66L69.10 14.66ZM77.96 19.16L77.96 19.16L77.96 13.47L79.44 13.47L79.44 19.18Q79.44 20.03 79.87 20.48Q80.31 20.93 81.15 20.93L81.15 20.93Q82.86 20.93 82.86 19.13L82.86 19.13L82.86 13.47L84.34 13.47L84.34 19.17Q84.34 20.53 83.47 21.32Q82.60 22.12 81.15 22.12L81.15 22.12Q79.68 22.12 78.82 21.33Q77.96 20.55 77.96 19.16ZM90.47 22L88.99 22L88.99 13.47L90.47 13.47L90.47 22ZM97.74 22L95.28 22L95.28 13.47L97.80 13.47Q98.93 13.47 99.81 13.97Q100.68 14.48 101.16 15.40Q101.64 16.33 101.64 17.52L101.64 17.52L101.64 17.95Q101.64 19.16 101.16 20.08Q100.68 21.00 99.78 21.50Q98.89 22 97.74 22L97.74 22ZM96.76 14.66L96.76 20.82L97.73 20.82Q98.90 20.82 99.52 20.09Q100.14 19.36 100.16 17.99L100.16 17.99L100.16 17.52Q100.16 16.13 99.55 15.40Q98.95 14.66 97.80 14.66L97.80 14.66L96.76 14.66ZM105.84 18.00L105.84 18.00L105.84 17.52Q105.84 16.28 106.28 15.32Q106.72 14.37 107.53 13.86Q108.34 13.35 109.38 13.35Q110.42 13.35 111.23 13.85Q112.03 14.35 112.47 15.29Q112.91 16.23 112.92 17.48L112.92 17.48L112.92 17.96Q112.92 19.21 112.48 20.16Q112.05 21.10 111.25 21.61Q110.44 22.12 109.39 22.12L109.39 22.12Q108.35 22.12 107.54 21.61Q106.73 21.10 106.29 20.17Q105.85 19.23 105.84 18.00ZM107.32 17.46L107.32 17.96Q107.32 19.36 107.87 20.13Q108.42 20.90 109.39 20.90L109.39 20.90Q110.38 20.90 110.91 20.15Q111.44 19.40 111.44 17.96L111.44 17.96L111.44 17.51Q111.44 16.09 110.90 15.34Q110.36 14.58 109.38 14.58L109.38 14.58Q108.42 14.58 107.88 15.33Q107.33 16.09 107.32 17.46L107.32 17.46ZM123.09 18.19L123.09 18.19L123.09 17.39Q123.09 16.19 123.52 15.27Q123.95 14.35 124.75 13.85Q125.55 13.35 126.59 13.35L126.59 13.35Q128.01 13.35 128.87 14.12Q129.73 14.89 129.87 16.29L129.87 16.29L128.39 16.29Q128.29 15.37 127.86 14.96Q127.43 14.55 126.59 14.55L126.59 14.55Q125.63 14.55 125.11 15.26Q124.59 15.96 124.58 17.33L124.58 17.33L124.58 18.09Q124.58 19.47 125.07 20.20Q125.57 20.92 126.52 20.92L126.52 20.92Q127.40 20.92 127.84 20.53Q128.28 20.14 128.39 19.22L128.39 19.22L129.87 19.22Q129.74 20.59 128.86 21.35Q127.98 22.12 126.52 22.12L126.52 22.12Q125.50 22.12 124.73 21.63Q123.95 21.15 123.53 20.26Q123.11 19.37 123.09 18.19ZM133.91 18.00L133.91 18.00L133.91 17.52Q133.91 16.28 134.35 15.32Q134.80 14.37 135.60 13.86Q136.41 13.35 137.45 13.35Q138.49 13.35 139.30 13.85Q140.11 14.35 140.55 15.29Q140.98 16.23 140.99 17.48L140.99 17.48L140.99 17.96Q140.99 19.21 140.56 20.16Q140.12 21.10 139.32 21.61Q138.51 22.12 137.46 22.12L137.46 22.12Q136.43 22.12 135.61 21.61Q134.80 21.10 134.36 20.17Q133.92 19.23 133.91 18.00ZM135.39 17.46L135.39 17.96Q135.39 19.36 135.94 20.13Q136.49 20.90 137.46 20.90L137.46 20.90Q138.45 20.90 138.98 20.15Q139.51 19.40 139.51 17.96L139.51 17.96L139.51 17.51Q139.51 16.09 138.97 15.34Q138.44 14.58 137.45 14.58L137.45 14.58Q136.49 14.58 135.95 15.33Q135.41 16.09 135.39 17.46L135.39 17.46ZM146.94 22L145.46 22L145.46 13.47L146.94 13.47L150.75 19.54L150.75 13.47L152.22 13.47L152.22 22L150.74 22L146.94 15.95L146.94 22Z" fill="#FFFFFF"/><path class="svg__text" d="M180.25 15.48L177.67 15.48L177.67 13.60L185.19 13.60L185.19 15.48L182.62 15.48L182.62 22L180.25 22L180.25 15.48ZM191.69 18.95L188.48 13.60L190.99 13.60L192.98 16.94L194.98 13.60L197.28 13.60L194.06 18.99L194.06 22L191.69 22L191.69 18.95ZM203.74 22L201.36 22L201.36 13.60L205.21 13.60Q206.34 13.60 207.18 13.98Q208.02 14.35 208.48 15.06Q208.94 15.76 208.94 16.71L208.94 16.71Q208.94 17.66 208.48 18.35Q208.02 19.05 207.18 19.42Q206.34 19.80 205.21 19.80L205.21 19.80L203.74 19.80L203.74 22ZM203.74 15.47L203.74 17.93L205.06 17.93Q205.79 17.93 206.16 17.61Q206.54 17.29 206.54 16.71L206.54 16.71Q206.54 16.12 206.16 15.80Q205.79 15.47 205.06 15.47L205.06 15.47L203.74 15.47ZM220.43 22L213.69 22L213.69 13.60L220.28 13.60L220.28 15.44L216.05 15.44L216.05 16.85L219.78 16.85L219.78 18.63L216.05 18.63L216.05 20.17L220.43 20.17L220.43 22ZM224.65 21.24L224.65 21.24L225.43 19.49Q226.00 19.86 226.74 20.09Q227.48 20.32 228.20 20.32L228.20 20.32Q229.57 20.32 229.58 19.64L229.58 19.64Q229.58 19.28 229.19 19.11Q228.80 18.93 227.93 18.74L227.93 18.74Q226.98 18.53 226.34 18.30Q225.71 18.06 225.25 17.55Q224.80 17.03 224.80 16.16L224.80 16.16Q224.80 15.39 225.22 14.77Q225.64 14.15 226.47 13.79Q227.31 13.43 228.51 13.43L228.51 13.43Q229.34 13.43 230.15 13.62Q230.95 13.80 231.57 14.17L231.57 14.17L230.83 15.93Q229.63 15.28 228.50 15.28L228.50 15.28Q227.79 15.28 227.47 15.49Q227.15 15.70 227.15 16.04L227.15 16.04Q227.15 16.37 227.53 16.54Q227.92 16.71 228.77 16.89L228.77 16.89Q229.73 17.10 230.36 17.33Q230.99 17.56 231.45 18.07Q231.91 18.58 231.91 19.46L231.91 19.46Q231.91 20.21 231.49 20.83Q231.08 21.44 230.23 21.80Q229.39 22.17 228.19 22.17L228.19 22.17Q227.17 22.17 226.21 21.92Q225.25 21.67 224.65 21.24ZM236.06 17.80L236.06 17.80Q236.06 16.54 236.66 15.54Q237.26 14.55 238.31 13.99Q239.36 13.43 240.68 13.43L240.68 13.43Q241.83 13.43 242.76 13.84Q243.68 14.25 244.29 15.02L244.29 15.02L242.78 16.39Q241.97 15.40 240.80 15.40L240.80 15.40Q240.12 15.40 239.58 15.70Q239.05 16 238.75 16.54Q238.46 17.09 238.46 17.80L238.46 17.80Q238.46 18.51 238.75 19.05Q239.05 19.60 239.58 19.90Q240.12 20.20 240.80 20.20L240.80 20.20Q241.97 20.20 242.78 19.22L242.78 19.22L244.29 20.58Q243.68 21.35 242.76 21.76Q241.83 22.17 240.68 22.17L240.68 22.17Q239.36 22.17 238.31 21.61Q237.26 21.05 236.66 20.05Q236.06 19.06 236.06 17.80ZM251.21 22L248.83 22L248.83 13.60L252.67 13.60Q253.82 13.60 254.65 13.98Q255.49 14.35 255.95 15.06Q256.41 15.76 256.41 16.71L256.41 16.71Q256.41 17.62 255.98 18.30Q255.55 18.98 254.76 19.36L254.76 19.36L256.57 22L254.03 22L252.50 19.77L251.21 19.77L251.21 22ZM251.21 15.47L251.21 17.93L252.53 17.93Q253.26 17.93 253.63 17.61Q254.00 17.29 254.00 16.71L254.00 16.71Q254.00 16.12 253.63 15.79Q253.26 15.47 252.53 15.47L252.53 15.47L251.21 15.47ZM263.57 22L261.19 22L261.19 13.60L263.57 13.60L263.57 22ZM271.12 22L268.75 22L268.75 13.60L272.59 13.60Q273.73 13.60 274.57 13.98Q275.41 14.35 275.86 15.06Q276.32 15.76 276.32 16.71L276.32 16.71Q276.32 17.66 275.86 18.35Q275.41 19.05 274.57 19.42Q273.73 19.80 272.59 19.80L272.59 19.80L271.12 19.80L271.12 22ZM271.12 15.47L271.12 17.93L272.44 17.93Q273.17 17.93 273.55 17.61Q273.92 17.29 273.92 16.71L273.92 16.71Q273.92 16.12 273.55 15.80Q273.17 15.47 272.44 15.47L272.44 15.47L271.12 15.47ZM282.87 15.48L280.28 15.48L280.28 13.60L287.81 13.60L287.81 15.48L285.24 15.48L285.24 22L282.87 22L282.87 15.48Z" fill="#FFFFFF" x="177.27"/></svg>