<svg xmlns="http://www.w3.org/2000/svg" width="191.95999999999998" height="35" viewBox="0 0 191.95999999999998 35"><rect class="svg__rect" x="0" y="0" width="117.73" height="35" fill="#31C4F3"/><rect class="svg__rect" x="115.73" y="0" width="76.22999999999999" height="35" fill="#389AD5"/><path class="svg__text" d="M15.70 22L14.22 22L14.22 13.47L15.70 13.47L15.70 17.02L19.51 17.02L19.51 13.47L20.99 13.47L20.99 22L19.51 22L19.51 18.21L15.70 18.21L15.70 22ZM31.31 22L25.73 22L25.73 13.47L31.27 13.47L31.27 14.66L27.21 14.66L27.21 17.02L30.72 17.02L30.72 18.19L27.21 18.19L27.21 20.82L31.31 20.82L31.31 22ZM35.23 18.19L35.23 18.19L35.23 17.39Q35.23 16.19 35.66 15.27Q36.09 14.35 36.89 13.85Q37.69 13.35 38.74 13.35L38.74 13.35Q40.15 13.35 41.01 14.12Q41.87 14.89 42.01 16.29L42.01 16.29L40.54 16.29Q40.43 15.37 40.00 14.96Q39.57 14.55 38.74 14.55L38.74 14.55Q37.77 14.55 37.25 15.26Q36.73 15.96 36.72 17.33L36.72 17.33L36.72 18.09Q36.72 19.47 37.22 20.20Q37.71 20.92 38.67 20.92L38.67 20.92Q39.54 20.92 39.98 20.53Q40.42 20.14 40.54 19.22L40.54 19.22L42.01 19.22Q41.89 20.59 41.01 21.35Q40.13 22.12 38.67 22.12L38.67 22.12Q37.65 22.12 36.87 21.63Q36.10 21.15 35.67 20.26Q35.25 19.37 35.23 18.19ZM47.81 22L46.33 22L46.33 13.47L47.81 13.47L47.81 17.02L51.62 17.02L51.62 13.47L53.10 13.47L53.10 22L51.62 22L51.62 18.21L47.81 18.21L47.81 22ZM57.57 18.00L57.57 18.00L57.57 17.52Q57.57 16.28 58.01 15.32Q58.46 14.37 59.26 13.86Q60.07 13.35 61.11 13.35Q62.15 13.35 62.96 13.85Q63.76 14.35 64.20 15.29Q64.64 16.23 64.65 17.48L64.65 17.48L64.65 17.96Q64.65 19.21 64.22 20.16Q63.78 21.10 62.98 21.61Q62.17 22.12 61.12 22.12L61.12 22.12Q60.08 22.12 59.27 21.61Q58.46 21.10 58.02 20.17Q57.58 19.23 57.57 18.00ZM59.05 17.46L59.05 17.96Q59.05 19.36 59.60 20.13Q60.15 20.90 61.12 20.90L61.12 20.90Q62.11 20.90 62.64 20.15Q63.17 19.40 63.17 17.96L63.17 17.96L63.17 17.51Q63.17 16.09 62.63 15.34Q62.09 14.58 61.11 14.58L61.11 14.58Q60.15 14.58 59.61 15.33Q59.06 16.09 59.05 17.46L59.05 17.46ZM74.82 18.19L74.82 18.19L74.82 17.39Q74.82 16.19 75.25 15.27Q75.68 14.35 76.48 13.85Q77.28 13.35 78.32 13.35L78.32 13.35Q79.74 13.35 80.60 14.12Q81.46 14.89 81.60 16.29L81.60 16.29L80.12 16.29Q80.02 15.37 79.59 14.96Q79.16 14.55 78.32 14.55L78.32 14.55Q77.36 14.55 76.84 15.26Q76.32 15.96 76.31 17.33L76.31 17.33L76.31 18.09Q76.31 19.47 76.80 20.20Q77.30 20.92 78.25 20.92L78.25 20.92Q79.13 20.92 79.57 20.53Q80.01 20.14 80.12 19.22L80.12 19.22L81.60 19.22Q81.47 20.59 80.59 21.35Q79.71 22.12 78.25 22.12L78.25 22.12Q77.23 22.12 76.46 21.63Q75.68 21.15 75.26 20.26Q74.84 19.37 74.82 18.19ZM85.64 18.00L85.64 18.00L85.64 17.52Q85.64 16.28 86.09 15.32Q86.53 14.37 87.33 13.86Q88.14 13.35 89.18 13.35Q90.22 13.35 91.03 13.85Q91.84 14.35 92.28 15.29Q92.72 16.23 92.72 17.48L92.72 17.48L92.72 17.96Q92.72 19.21 92.29 20.16Q91.85 21.10 91.05 21.61Q90.24 22.12 89.19 22.12L89.19 22.12Q88.16 22.12 87.35 21.61Q86.53 21.10 86.09 20.17Q85.65 19.23 85.64 18.00ZM87.13 17.46L87.13 17.96Q87.13 19.36 87.67 20.13Q88.22 20.90 89.19 20.90L89.19 20.90Q90.18 20.90 90.71 20.15Q91.24 19.40 91.24 17.96L91.24 17.96L91.24 17.51Q91.24 16.09 90.70 15.34Q90.17 14.58 89.18 14.58L89.18 14.58Q88.22 14.58 87.68 15.33Q87.14 16.09 87.13 17.46L87.13 17.46ZM98.67 22L97.19 22L97.19 13.47L98.67 13.47L102.48 19.54L102.48 13.47L103.95 13.47L103.95 22L102.47 22L98.67 15.95L98.67 22Z" fill="#FFFFFF"/><path class="svg__text" d="M131.34 22L128.91 22L132.62 13.60L134.96 13.60L138.68 22L136.21 22L135.55 20.37L132.00 20.37L131.34 22ZM133.77 15.93L132.69 18.61L134.85 18.61L133.77 15.93ZM145.03 22L142.83 22L142.83 13.60L144.79 13.60L147.74 18.45L150.62 13.60L152.58 13.60L152.60 22L150.42 22L150.40 17.55L148.23 21.17L147.18 21.17L145.03 17.67L145.03 22ZM157.33 17.80L157.33 17.80Q157.33 16.55 157.94 15.55Q158.54 14.56 159.60 14.00Q160.67 13.43 162.00 13.43L162.00 13.43Q163.33 13.43 164.39 14.00Q165.46 14.56 166.06 15.55Q166.67 16.55 166.67 17.80L166.67 17.80Q166.67 19.05 166.06 20.04Q165.46 21.04 164.39 21.60Q163.33 22.17 162.00 22.17L162.00 22.17Q160.67 22.17 159.60 21.60Q158.54 21.04 157.94 20.04Q157.33 19.05 157.33 17.80ZM159.73 17.80L159.73 17.80Q159.73 18.51 160.03 19.05Q160.33 19.60 160.85 19.90Q161.37 20.20 162.00 20.20L162.00 20.20Q162.64 20.20 163.15 19.90Q163.67 19.60 163.97 19.05Q164.27 18.51 164.27 17.80L164.27 17.80Q164.27 17.09 163.97 16.54Q163.67 16 163.15 15.70Q162.64 15.40 162.00 15.40L162.00 15.40Q161.36 15.40 160.85 15.70Q160.33 16 160.03 16.54Q159.73 17.09 159.73 17.80ZM173.78 22L171.40 22L171.40 13.60L175.24 13.60Q176.38 13.60 177.22 13.98Q178.06 14.35 178.52 15.06Q178.97 15.76 178.97 16.71L178.97 16.71Q178.97 17.62 178.54 18.30Q178.12 18.98 177.33 19.36L177.33 19.36L179.14 22L176.59 22L175.07 19.77L173.78 19.77L173.78 22ZM173.78 15.47L173.78 17.93L175.09 17.93Q175.83 17.93 176.20 17.61Q176.57 17.29 176.57 16.71L176.57 16.71Q176.57 16.12 176.20 15.79Q175.83 15.47 175.09 15.47L175.09 15.47L173.78 15.47Z" fill="#FFFFFF" x="128.73000000000002"/></svg>